<mxfile host="app.diagrams.net" modified="2024-07-05T03:59:37.684Z" agent="Mozilla/5.0 (Macintosh; Intel Mac OS X 10_15_7) AppleWebKit/605.1.15 (KHTML, like Gecko) Version/17.2.1 Safari/605.1.15" etag="NsbrLT9CV279-roREbXw" version="24.6.4" type="device">
  <diagram name="Page-1" id="FaiYxrHiT70jP3eEyJvW">
    <mxGraphModel dx="794" dy="449" grid="1" gridSize="10" guides="1" tooltips="1" connect="1" arrows="1" fold="1" page="1" pageScale="1" pageWidth="827" pageHeight="1169" math="0" shadow="0">
      <root>
        <mxCell id="0" />
        <mxCell id="1" parent="0" />
        <mxCell id="Y_hJVnc2l33QmjdNrFfX-13" value="" style="group" vertex="1" connectable="0" parent="1">
          <mxGeometry x="80" y="80" width="120" height="160" as="geometry" />
        </mxCell>
        <mxCell id="Y_hJVnc2l33QmjdNrFfX-10" value="User" style="rounded=0;whiteSpace=wrap;html=1;" vertex="1" parent="Y_hJVnc2l33QmjdNrFfX-13">
          <mxGeometry width="120" height="40" as="geometry" />
        </mxCell>
        <mxCell id="Y_hJVnc2l33QmjdNrFfX-11" value="&lt;div&gt;- userID: String&lt;/div&gt;&lt;div&gt;- name: String&lt;/div&gt;&lt;div&gt;- email: String&lt;/div&gt;&lt;div style=&quot;&quot;&gt;- password: String&amp;nbsp;&lt;/div&gt;" style="rounded=0;whiteSpace=wrap;html=1;align=left;" vertex="1" parent="Y_hJVnc2l33QmjdNrFfX-13">
          <mxGeometry y="40" width="120" height="70" as="geometry" />
        </mxCell>
        <mxCell id="Y_hJVnc2l33QmjdNrFfX-12" value="+ signIn()&lt;div&gt;+ signUp()&lt;/div&gt;&lt;div style=&quot;&quot;&gt;+ logOut()&lt;/div&gt;" style="rounded=0;whiteSpace=wrap;html=1;align=left;" vertex="1" parent="Y_hJVnc2l33QmjdNrFfX-13">
          <mxGeometry y="110" width="120" height="50" as="geometry" />
        </mxCell>
        <mxCell id="Y_hJVnc2l33QmjdNrFfX-18" value="" style="group" vertex="1" connectable="0" parent="1">
          <mxGeometry x="320" y="80" width="120" height="190" as="geometry" />
        </mxCell>
        <mxCell id="Y_hJVnc2l33QmjdNrFfX-15" value="Supplier" style="rounded=0;whiteSpace=wrap;html=1;container=0;" vertex="1" parent="Y_hJVnc2l33QmjdNrFfX-18">
          <mxGeometry width="120" height="40" as="geometry" />
        </mxCell>
        <mxCell id="Y_hJVnc2l33QmjdNrFfX-16" value="&lt;div&gt;- supplierID: String&lt;/div&gt;&lt;div&gt;- name: String&lt;/div&gt;&lt;div&gt;- email: String&lt;/div&gt;&lt;div style=&quot;&quot;&gt;- phone: String&lt;/div&gt;&lt;div style=&quot;&quot;&gt;- address : string&lt;/div&gt;" style="rounded=0;whiteSpace=wrap;html=1;align=left;container=0;" vertex="1" parent="Y_hJVnc2l33QmjdNrFfX-18">
          <mxGeometry y="40" width="120" height="80" as="geometry" />
        </mxCell>
        <mxCell id="Y_hJVnc2l33QmjdNrFfX-17" value="+ addSupplier()&lt;div&gt;+ modifySupplier()&lt;/div&gt;&lt;div style=&quot;&quot;&gt;+ removeSupplier()&lt;/div&gt;&lt;div style=&quot;&quot;&gt;+ displaySupplier()&lt;/div&gt;" style="rounded=0;whiteSpace=wrap;html=1;align=left;container=0;" vertex="1" parent="Y_hJVnc2l33QmjdNrFfX-18">
          <mxGeometry y="120" width="120" height="70" as="geometry" />
        </mxCell>
        <mxCell id="Y_hJVnc2l33QmjdNrFfX-26" value="" style="group" vertex="1" connectable="0" parent="1">
          <mxGeometry x="200" y="320" width="120" height="200" as="geometry" />
        </mxCell>
        <mxCell id="Y_hJVnc2l33QmjdNrFfX-20" value="RFI" style="rounded=0;whiteSpace=wrap;html=1;container=0;" vertex="1" parent="Y_hJVnc2l33QmjdNrFfX-26">
          <mxGeometry width="120" height="40" as="geometry" />
        </mxCell>
        <mxCell id="Y_hJVnc2l33QmjdNrFfX-21" value="&lt;div&gt;- rfiID: String&lt;/div&gt;&lt;div&gt;- title: String&lt;/div&gt;&lt;div&gt;- creationDate: Date&lt;/div&gt;&lt;div&gt;- state: String&lt;/div&gt;&lt;div&gt;- deadline: Date&lt;/div&gt;&lt;div&gt;- userID: String&lt;/div&gt;" style="rounded=0;whiteSpace=wrap;html=1;align=left;container=0;" vertex="1" parent="Y_hJVnc2l33QmjdNrFfX-26">
          <mxGeometry y="40" width="120" height="90" as="geometry" />
        </mxCell>
        <mxCell id="Y_hJVnc2l33QmjdNrFfX-22" value="+ addRFI()&lt;div&gt;+ modifyRFI()&lt;/div&gt;&lt;div style=&quot;&quot;&gt;+ removeRFI()&lt;/div&gt;&lt;div style=&quot;&quot;&gt;+ displayRFI()&lt;/div&gt;" style="rounded=0;whiteSpace=wrap;html=1;align=left;container=0;" vertex="1" parent="Y_hJVnc2l33QmjdNrFfX-26">
          <mxGeometry y="130" width="120" height="70" as="geometry" />
        </mxCell>
        <mxCell id="Y_hJVnc2l33QmjdNrFfX-28" value="" style="group" vertex="1" connectable="0" parent="1">
          <mxGeometry x="440" y="320" width="140" height="220" as="geometry" />
        </mxCell>
        <mxCell id="Y_hJVnc2l33QmjdNrFfX-23" value="RFQ" style="rounded=0;whiteSpace=wrap;html=1;container=0;" vertex="1" parent="Y_hJVnc2l33QmjdNrFfX-28">
          <mxGeometry width="140" height="40" as="geometry" />
        </mxCell>
        <mxCell id="Y_hJVnc2l33QmjdNrFfX-24" value="&lt;div&gt;- rfqID: String&lt;/div&gt;&lt;div&gt;- title: String&lt;/div&gt;&lt;div&gt;- creationDate: Date&lt;/div&gt;&lt;div&gt;- state: String&lt;/div&gt;&lt;div&gt;- deadline: Date&lt;/div&gt;&lt;div&gt;- budgetEstimate: double&amp;nbsp;&lt;/div&gt;&lt;div&gt;- userID: String&lt;/div&gt;" style="rounded=0;whiteSpace=wrap;html=1;align=left;container=0;" vertex="1" parent="Y_hJVnc2l33QmjdNrFfX-28">
          <mxGeometry y="40" width="140" height="110" as="geometry" />
        </mxCell>
        <mxCell id="Y_hJVnc2l33QmjdNrFfX-25" value="+ addRFI()&lt;div&gt;+ modifyRFI()&lt;/div&gt;&lt;div style=&quot;&quot;&gt;+ removeRFI()&lt;/div&gt;&lt;div style=&quot;&quot;&gt;+ displayRFI()&lt;/div&gt;" style="rounded=0;whiteSpace=wrap;html=1;align=left;container=0;" vertex="1" parent="Y_hJVnc2l33QmjdNrFfX-28">
          <mxGeometry y="150" width="140" height="70" as="geometry" />
        </mxCell>
        <mxCell id="Y_hJVnc2l33QmjdNrFfX-30" style="edgeStyle=orthogonalEdgeStyle;rounded=0;orthogonalLoop=1;jettySize=auto;html=1;exitX=1;exitY=0.5;exitDx=0;exitDy=0;entryX=0;entryY=0.5;entryDx=0;entryDy=0;" edge="1" parent="1" source="Y_hJVnc2l33QmjdNrFfX-10" target="Y_hJVnc2l33QmjdNrFfX-15">
          <mxGeometry relative="1" as="geometry" />
        </mxCell>
        <mxCell id="Y_hJVnc2l33QmjdNrFfX-38" value="0...*" style="edgeLabel;html=1;align=center;verticalAlign=middle;resizable=0;points=[];" vertex="1" connectable="0" parent="Y_hJVnc2l33QmjdNrFfX-30">
          <mxGeometry x="-0.3583" y="-1" relative="1" as="geometry">
            <mxPoint x="22" y="-1" as="offset" />
          </mxGeometry>
        </mxCell>
        <mxCell id="Y_hJVnc2l33QmjdNrFfX-35" style="edgeStyle=orthogonalEdgeStyle;rounded=0;orthogonalLoop=1;jettySize=auto;html=1;exitX=0.25;exitY=1;exitDx=0;exitDy=0;entryX=0.5;entryY=0;entryDx=0;entryDy=0;" edge="1" parent="1" source="Y_hJVnc2l33QmjdNrFfX-17" target="Y_hJVnc2l33QmjdNrFfX-20">
          <mxGeometry relative="1" as="geometry" />
        </mxCell>
        <mxCell id="Y_hJVnc2l33QmjdNrFfX-37" value="0...*" style="edgeLabel;html=1;align=center;verticalAlign=middle;resizable=0;points=[];" vertex="1" connectable="0" parent="Y_hJVnc2l33QmjdNrFfX-35">
          <mxGeometry x="0.1405" y="-1" relative="1" as="geometry">
            <mxPoint as="offset" />
          </mxGeometry>
        </mxCell>
        <mxCell id="Y_hJVnc2l33QmjdNrFfX-36" style="edgeStyle=orthogonalEdgeStyle;rounded=0;orthogonalLoop=1;jettySize=auto;html=1;exitX=0.75;exitY=1;exitDx=0;exitDy=0;" edge="1" parent="1" source="Y_hJVnc2l33QmjdNrFfX-17" target="Y_hJVnc2l33QmjdNrFfX-23">
          <mxGeometry relative="1" as="geometry" />
        </mxCell>
        <mxCell id="Y_hJVnc2l33QmjdNrFfX-39" value="0...*" style="edgeLabel;html=1;align=center;verticalAlign=middle;resizable=0;points=[];" vertex="1" connectable="0" parent="Y_hJVnc2l33QmjdNrFfX-36">
          <mxGeometry x="-0.0756" y="3" relative="1" as="geometry">
            <mxPoint as="offset" />
          </mxGeometry>
        </mxCell>
        <mxCell id="Y_hJVnc2l33QmjdNrFfX-44" value="" style="group" vertex="1" connectable="0" parent="1">
          <mxGeometry x="560" y="80" width="120" height="130" as="geometry" />
        </mxCell>
        <mxCell id="Y_hJVnc2l33QmjdNrFfX-41" value="KPI" style="rounded=0;whiteSpace=wrap;html=1;container=0;" vertex="1" parent="Y_hJVnc2l33QmjdNrFfX-44">
          <mxGeometry width="120" height="40" as="geometry" />
        </mxCell>
        <mxCell id="Y_hJVnc2l33QmjdNrFfX-42" value="&lt;div&gt;- kpiID: String&lt;/div&gt;&lt;div&gt;- name: String&lt;/div&gt;&lt;div&gt;- valeur: String&lt;/div&gt;&lt;div style=&quot;&quot;&gt;- lastUpdate: Date&amp;nbsp;&lt;/div&gt;" style="rounded=0;whiteSpace=wrap;html=1;align=left;container=0;" vertex="1" parent="Y_hJVnc2l33QmjdNrFfX-44">
          <mxGeometry y="40" width="120" height="70" as="geometry" />
        </mxCell>
        <mxCell id="Y_hJVnc2l33QmjdNrFfX-43" value="+ displayKPI()" style="rounded=0;whiteSpace=wrap;html=1;align=left;container=0;" vertex="1" parent="Y_hJVnc2l33QmjdNrFfX-44">
          <mxGeometry y="110" width="120" height="20" as="geometry" />
        </mxCell>
      </root>
    </mxGraphModel>
  </diagram>
</mxfile>
